<svg xmlns="http://www.w3.org/2000/svg" xmlns:xlink="http://www.w3.org/1999/xlink" zoomAndPan="magnify" preserveAspectRatio="xMidYMid meet" version="1.0" viewBox="57.54 12.65 245.67 350.77"><defs><g/></defs><g fill="#3e51ca" fill-opacity="1"><g transform="translate(45.871895, 248.710002)"><g><path d="M 114.28125 -236.0625 C 130.6875 -236.0625 145.070312 -232.722656 157.4375 -226.046875 C 169.8125 -219.378906 179.335938 -210.625 186.015625 -199.78125 L 186.015625 -232.734375 L 257.34375 -232.734375 L 257.34375 -0.421875 C 257.34375 20.992188 253.097656 40.390625 244.609375 57.765625 C 236.128906 75.140625 223.203125 88.972656 205.828125 99.265625 C 188.453125 109.554688 166.832031 114.703125 140.96875 114.703125 C 106.488281 114.703125 78.546875 106.566406 57.140625 90.296875 C 35.734375 74.023438 23.5 51.988281 20.4375 24.1875 L 90.921875 24.1875 C 93.148438 33.082031 98.429688 40.101562 106.765625 45.25 C 115.109375 50.394531 125.398438 52.96875 137.640625 52.96875 C 152.367188 52.96875 164.113281 48.726562 172.875 40.25 C 181.632812 31.769531 186.015625 18.210938 186.015625 -0.421875 L 186.015625 -33.359375 C 179.066406 -22.515625 169.472656 -13.6875 157.234375 -6.875 C 145.003906 -0.0625 130.6875 3.34375 114.28125 3.34375 C 95.09375 3.34375 77.710938 -1.59375 62.140625 -11.46875 C 46.566406 -21.34375 34.257812 -35.382812 25.21875 -53.59375 C 16.1875 -71.800781 11.671875 -92.863281 11.671875 -116.78125 C 11.671875 -140.695312 16.1875 -161.691406 25.21875 -179.765625 C 34.257812 -197.835938 46.566406 -211.738281 62.140625 -221.46875 C 77.710938 -231.195312 95.09375 -236.0625 114.28125 -236.0625 Z M 186.015625 -116.359375 C 186.015625 -134.160156 181.078125 -148.203125 171.203125 -158.484375 C 161.335938 -168.773438 149.316406 -173.921875 135.140625 -173.921875 C 120.953125 -173.921875 108.921875 -168.84375 99.046875 -158.6875 C 89.179688 -148.539062 84.25 -134.570312 84.25 -116.78125 C 84.25 -98.988281 89.179688 -84.878906 99.046875 -74.453125 C 108.921875 -64.023438 120.953125 -58.8125 135.140625 -58.8125 C 149.316406 -58.8125 161.335938 -63.953125 171.203125 -74.234375 C 181.078125 -84.523438 186.015625 -98.566406 186.015625 -116.359375 Z M 186.015625 -116.359375 "/></g></g></g></svg>